<?xml version="1.0" encoding="UTF-8"?>
<svg version="1.1" xmlns="http://www.w3.org/2000/svg" width="500" height="500">
<path d="M0 0 C165 0 330 0 500 0 C500 165 500 330 500 500 C335 500 170 500 0 500 C0 335 0 170 0 0 Z " fill="#ECE8E6" transform="translate(0,0)"/>
<path d="M0 0 C8.91 0 17.82 0 27 0 C25.68 1.65 24.36 3.3 23 5 C21.75822479 7.48355041 21.87963319 9.13107622 21.88647461 11.90869141 C21.88658791 13.44005234 21.88658791 13.44005234 21.88670349 15.00234985 C21.89186478 16.10759003 21.89702606 17.2128302 21.90234375 18.3515625 C21.90446617 20.04531509 21.90446617 20.04531509 21.90663147 21.77328491 C21.91224256 25.39054988 21.92479697 29.00775364 21.9375 32.625 C21.94251357 35.07291577 21.94707672 37.52083252 21.95117188 39.96875 C21.9622156 45.97918766 21.97896456 51.98958946 22 58 C24.08751111 55.92604171 26.1731698 53.85027568 28.2578125 51.7734375 C28.8453833 51.19005615 29.4329541 50.6066748 30.03833008 50.00561523 C33.67334951 46.38079937 37.13660346 42.67168361 40.4609375 38.7578125 C42.60534094 36.30862076 44.92861221 34.06118444 47.25 31.78125 C49.69997558 29.28752486 51.9515385 26.63760197 54.23046875 23.98828125 C56.54670384 21.38571246 59.01129992 18.95936552 61.51953125 16.54296875 C64.78322651 13.14149216 65.26499948 10.65751223 65.4609375 6.03515625 C65.03766039 3.32640031 65.03766039 3.32640031 61 0 C68.26 0 75.52 0 83 0 C81.35 1.32 79.7 2.64 78 4 C68.65852692 12.05398062 60.25260147 20.90409717 51.89355469 29.95800781 C50.1322711 31.85736005 48.35515982 33.7400024 46.5703125 35.6171875 C45.56748009 36.68207677 44.56486011 37.74716615 43.5625 38.8125 C42.69753906 39.72644531 41.83257812 40.64039063 40.94140625 41.58203125 C39.11448381 43.85741353 38.36553953 45.14879165 38 48 C38.4846875 48.32871094 38.969375 48.65742188 39.46875 48.99609375 C48.43298114 55.35725007 54.53591049 63.15329152 59.75 72.75 C60.2538623 73.65105469 60.75772461 74.55210937 61.27685547 75.48046875 C62.86154241 78.31472434 64.43220768 81.15636925 66 84 C68.02876702 87.67402422 70.06935476 91.34094484 72.125 95 C72.61540771 95.88010742 73.10581543 96.76021484 73.61108398 97.66699219 C76.5970686 102.91043073 79.87110261 107.44751686 83.8125 112 C87.61748586 116.63030975 88.56993868 119.30905202 88.125 125.3125 C87.80472827 127.21834235 87.44914664 129.12035207 87 131 C75.36934182 125.75076489 68.99660495 112.58505416 64.63076782 101.19108582 C63.65900258 98.54713782 62.71234382 95.89530023 61.78259277 93.23629761 C54.36410865 69.00976884 54.36410865 69.00976884 38 51 C36.00720299 50.14316286 36.00720299 50.14316286 34 50 C31.71300758 51.59095125 29.95192791 53.0577239 28 55 C27.47378052 55.50301636 26.94756104 56.00603271 26.40539551 56.52429199 C22.76788818 60.32578181 21.31308681 62.97411832 21.2689209 68.25476074 C21.2936145 69.0060022 21.31830811 69.75724365 21.34375 70.53125 C21.34749634 71.32599731 21.35124268 72.12074463 21.35510254 72.9395752 C21.36847473 74.61044242 21.39616762 76.2812507 21.4375 77.95166016 C21.4998311 80.4931134 21.5194558 83.03207636 21.53125 85.57421875 C21.54959451 87.20575905 21.57034752 88.83727441 21.59375 90.46875 C21.60224976 91.21999146 21.61074951 91.97123291 21.61950684 92.74523926 C21.74618151 97.47628617 22.29698651 101.56071609 24 106 C25.485 106.495 25.485 106.495 27 107 C27 107.33 27 107.66 27 108 C18.09 108 9.18 108 0 108 C1.65 106.35 3.3 104.7 5 103 C6.6708345 99.65833101 6.15637743 95.89852464 6.16113281 92.22338867 C6.16609772 91.31429245 6.17106262 90.40519623 6.17617798 89.46855164 C6.1908202 86.45168306 6.19760529 83.43486707 6.203125 80.41796875 C6.20887509 78.3253021 6.21463284 76.23263548 6.22039795 74.13996887 C6.23091403 69.74752557 6.23675261 65.35510061 6.24023438 60.96264648 C6.24571809 55.33341397 6.26974103 49.70442346 6.29820633 44.07526684 C6.31682826 39.75070996 6.32203809 35.4262114 6.32357025 31.10161781 C6.32659869 29.02637726 6.33463362 26.95113778 6.34775543 24.87593651 C6.36480525 21.9720354 6.36293812 19.06872575 6.35644531 16.16479492 C6.3656601 15.30694397 6.37487488 14.44909302 6.3843689 13.56524658 C6.35162083 8.8909487 6.06376171 5.77574409 3 2 C2.01 1.34 1.02 0.68 0 0 Z " fill="#26221F" transform="translate(179,159)"/>
<path d="M0 0 C8.91 0 17.82 0 27 0 C25.68 1.65 24.36 3.3 23 5 C21.32813674 8.34372651 21.85590762 12.10853448 21.8581543 15.78564453 C21.85467987 16.69657867 21.85120544 17.60751282 21.84762573 18.54605103 C21.84025879 20.53110261 21.83491843 22.51616249 21.83133507 24.50122452 C21.82416535 27.65630982 21.80848948 30.81123996 21.78999329 33.96627808 C21.73758653 42.93989779 21.68966921 51.91343801 21.67407227 60.88720703 C21.66390872 66.37510584 21.63436214 71.86262188 21.59275246 77.3503685 C21.58054282 79.43042968 21.57530257 81.51054522 21.57755089 83.59064102 C21.58996604 98.84373623 20.65084502 113.49214911 13.4375 127.3125 C13.10016846 127.96855225 12.76283691 128.62460449 12.4152832 129.30053711 C6.50187096 140.15927771 -3.65390191 149.39159343 -15.24609375 153.8671875 C-17.1875 154.4375 -17.1875 154.4375 -20 155 C-20 154.34 -20 153.68 -20 153 C-19.03900391 152.61521484 -19.03900391 152.61521484 -18.05859375 152.22265625 C-7.49202831 147.54565188 -3.17153914 140.42027215 0.95703125 129.89453125 C1.30121094 128.93933594 1.64539063 127.98414063 2 127 C2.49311172 125.64189209 2.49311172 125.64189209 2.9961853 124.25634766 C7.0532852 111.09522562 6.32594841 96.55649333 6.3359375 82.9375 C6.34238101 80.84960849 6.34911046 78.76171785 6.35610962 76.67382812 C6.3679928 72.33054507 6.37179899 67.98734109 6.37060547 63.64404297 C6.37040099 58.09163449 6.39787528 52.53973044 6.43214989 46.98744202 C6.45440791 42.68936847 6.4584436 38.39141751 6.45738602 34.09329224 C6.45973697 32.04564653 6.46853181 29.99799718 6.48405075 27.95040894 C6.50371996 25.09157717 6.49787254 22.23385081 6.48583984 19.375 C6.50269836 18.12336815 6.50269836 18.12336815 6.51989746 16.84645081 C6.44958863 10.24868823 4.74623966 4.74623966 0 0 Z " fill="#25211E" transform="translate(263,183)"/>
<path d="M0 0 C7.26 0 14.52 0 22 0 C20.35 1.32 18.7 2.64 17 4 C7.65852692 12.05398062 -0.74739853 20.90409717 -9.10644531 29.95800781 C-10.8677289 31.85736005 -12.64484018 33.7400024 -14.4296875 35.6171875 C-15.43251991 36.68207677 -16.43513989 37.74716615 -17.4375 38.8125 C-18.30246094 39.72644531 -19.16742188 40.64039063 -20.05859375 41.58203125 C-22.30488326 44.03445271 -22.30488326 44.03445271 -23 48 C-20.36 49.98 -17.72 51.96 -15 54 C-15.66 54.66 -16.32 55.32 -17 56 C-17.51949219 55.54367188 -18.03898437 55.08734375 -18.57421875 54.6171875 C-22.57555363 51.05831899 -22.57555363 51.05831899 -27.5625 50.125 C-31.24024091 52.95403147 -34.09492649 56.400053 -37 60 C-37.66 59.34 -38.32 58.68 -39 58 C-37.71416016 56.7315625 -37.71416016 56.7315625 -36.40234375 55.4375 C-30.93420163 50.02053675 -25.52535473 44.62837331 -20.5390625 38.7578125 C-18.39465906 36.30862076 -16.07138779 34.06118444 -13.75 31.78125 C-11.30002442 29.28752486 -9.0484615 26.63760197 -6.76953125 23.98828125 C-4.45329616 21.38571246 -1.98870008 18.95936552 0.51953125 16.54296875 C3.78322651 13.14149216 4.26499948 10.65751223 4.4609375 6.03515625 C4.03766039 3.32640031 4.03766039 3.32640031 0 0 Z " fill="#272320" transform="translate(240,159)"/>
<path d="M0 0 C0.87785156 0.32484375 0.87785156 0.32484375 1.7734375 0.65625 C14.78476458 4.87613986 28.76301195 3.61933332 42 1 C42 1.66 42 2.32 42 3 C40.64870353 3.48720213 39.29375684 3.96428184 37.9375 4.4375 C37.18339844 4.70433594 36.42929687 4.97117187 35.65234375 5.24609375 C27.87584849 7.45649667 20.08730697 7.11720503 12.0625 7.0625 C10.80630859 7.05798828 9.55011719 7.05347656 8.25585938 7.04882812 C5.17052337 7.03709681 2.08528684 7.020681 -1 7 C-0.67 4.69 -0.34 2.38 0 0 Z " fill="#292522" transform="translate(285,292)"/>
<path d="M0 0 C0.99 0.33 1.98 0.66 3 1 C2.28714844 1.70125 1.57429688 2.4025 0.83984375 3.125 C-4.14381587 8.05289839 -9.02726484 12.99217251 -13.5625 18.34375 C-15 20 -15 20 -16.6875 21.53125 C-18.33316549 23.04453775 -18.33316549 23.04453775 -18 26 C-16.23598598 27.6877081 -16.23598598 27.6877081 -14 29.1875 C-12.88625 29.98220703 -12.88625 29.98220703 -11.75 30.79296875 C-11.1725 31.19128906 -10.595 31.58960938 -10 32 C-10.66 32.66 -11.32 33.32 -12 34 C-12.51949219 33.54367188 -13.03898437 33.08734375 -13.57421875 32.6171875 C-17.57555363 29.05831899 -17.57555363 29.05831899 -22.5625 28.125 C-26.24024091 30.95403147 -29.09492649 34.400053 -32 38 C-32.66 37.34 -33.32 36.68 -34 36 C-32.71416016 34.7315625 -32.71416016 34.7315625 -31.40234375 33.4375 C-25.93420163 28.02053675 -20.52535473 22.62837331 -15.5390625 16.7578125 C-13.40312731 14.31829262 -11.08988569 12.07918481 -8.77734375 9.80859375 C-5.69846012 6.6755759 -2.85269265 3.33825735 0 0 Z " fill="#373330" transform="translate(235,181)"/>
<path d="M0 0 C0.66 0 1.32 0 2 0 C2.556875 1.175625 2.556875 1.175625 3.125 2.375 C5.87058992 6.21882589 8.43631198 6.17703987 13 7 C13 7.33 13 7.66 13 8 C11.39125 8.0928125 11.39125 8.0928125 9.75 8.1875 C5.31365441 9.14870821 4.5083531 10.3768233 2 14 C1.34 14 0.68 14 0 14 C-0.556875 13.195625 -1.11375 12.39125 -1.6875 11.5625 C-4.65498471 8.27420613 -6.68157031 8.24914017 -11 8 C-11 7.67 -11 7.34 -11 7 C-9.1128125 6.6596875 -9.1128125 6.6596875 -7.1875 6.3125 C-3.83189177 5.5017093 -3.22492554 5.31489575 -1.125 2.375 C-0.75375 1.59125 -0.3825 0.8075 0 0 Z " fill="#322E2B" transform="translate(368,232)"/>
<path d="M0 0 C0.495 0.78375 0.99 1.5675 1.5 2.375 C4.85744237 5.90031449 7.27291749 6.13336821 12 7 C12 7.33 12 7.66 12 8 C10.906875 8.103125 9.81375 8.20625 8.6875 8.3125 C4.55275364 9.04642044 4.55275364 9.04642044 2 12 C0.82425289 14.09989652 0.82425289 14.09989652 0 16 C-0.8353125 14.576875 -0.8353125 14.576875 -1.6875 13.125 C-4.06570302 9.91121213 -5.24034426 9.04434882 -9 8 C-8.01 7.34 -7.02 6.68 -6 6 C-4.31337542 4.35353315 -2.64488294 2.68816933 -1 1 C-0.67 0.67 -0.34 0.34 0 0 Z " fill="#2E2A27" transform="translate(131,232)"/>
<path d="M0 0 C0.66 0 1.32 0 2 0 C2.67119549 1.4562545 3.33681807 2.91507867 4 4.375 C4.556875 5.59316406 4.556875 5.59316406 5.125 6.8359375 C6 9 6 9 6 11 C6.66 11 7.32 11 8 11 C7.34 12.32 6.68 13.64 6 15 C5.01 12.69 4.02 10.38 3 8 C2.67 10.31 2.34 12.62 2 15 C1.34 15 0.68 15 0 15 C0 10.05 0 5.1 0 0 Z " fill="#9B9794" transform="translate(245,373)"/>
<path d="M0 0 C0.99 0 1.98 0 3 0 C2.94003987 2.77315591 2.85306688 5.54089706 2.75 8.3125 C2.73582031 9.09818359 2.72164062 9.88386719 2.70703125 10.69335938 C2.45812087 16.54275341 2.45812087 16.54275341 -0.046875 19.04296875 C-0.69140625 19.35878906 -1.3359375 19.67460937 -2 20 C-1.505 18.515 -1.505 18.515 -1 17 C-0.85596652 15.66636297 -0.75409577 14.32781954 -0.68359375 12.98828125 C-0.64169922 12.23095703 -0.59980469 11.47363281 -0.55664062 10.69335938 C-0.51732422 9.90767578 -0.47800781 9.12199219 -0.4375 8.3125 C-0.39431641 7.51521484 -0.35113281 6.71792969 -0.30664062 5.89648438 C-0.20072632 3.93118553 -0.09987449 1.96561504 0 0 Z " fill="#726E6C" transform="translate(227,373)"/>
<path d="M0 0 C0.66 0 1.32 0 2 0 C2.67031719 1.9570868 3.33614683 3.91571113 4 5.875 C4.556875 7.51082031 4.556875 7.51082031 5.125 9.1796875 C6 12 6 12 6 14 C5.34 14 4.68 14 4 14 C3.67 12.02 3.34 10.04 3 8 C1.35 8 -0.3 8 -2 8 C-1.47731534 5.23723823 -0.89130413 2.6739124 0 0 Z " fill="#6B6764" transform="translate(290,374)"/>
<path d="M0 0 C0.66 0 1.32 0 2 0 C2 4.62 2 9.24 2 14 C1.34 14 0.68 14 0 14 C-0.33 11.69 -0.66 9.38 -1 7 C-1.66 7.66 -2.32 8.32 -3 9 C-2.44271087 5.65626525 -1.64826111 2.96687001 0 0 Z " fill="#625E5B" transform="translate(277,374)"/>
<path d="M0 0 C0.66 0 1.32 0 2 0 C2.83790789 1.78953185 3.67019396 3.58169695 4.5 5.375 C4.9640625 6.37273437 5.428125 7.37046875 5.90625 8.3984375 C7 11 7 11 7 13 C6.34 13 5.68 13 5 13 C4.01 10.69 3.02 8.38 2 6 C1.67 8.64 1.34 11.28 1 14 C0.67 14 0.34 14 0 14 C0 9.38 0 4.76 0 0 Z " fill="#4A4643" transform="translate(266,374)"/>
<path d="M0 0 C0.99 0 1.98 0 3 0 C2.67 4.95 2.34 9.9 2 15 C1.34 15 0.68 15 0 15 C0 10.05 0 5.1 0 0 Z " fill="#686461" transform="translate(236,373)"/>
<path d="M0 0 C0.66 0 1.32 0 2 0 C2 4.62 2 9.24 2 14 C1.34 14 0.68 14 0 14 C-0.19393875 11.85473901 -0.37998676 9.70876323 -0.5625 7.5625 C-0.71912109 5.77005859 -0.71912109 5.77005859 -0.87890625 3.94140625 C-0.91886719 2.97074219 -0.95882813 2.00007813 -1 1 C-0.67 0.67 -0.34 0.34 0 0 Z " fill="#55514E" transform="translate(257,374)"/>
<path d="M0 0 C0.99 0.33 1.98 0.66 3 1 C2.113125 1.721875 1.22625 2.44375 0.3125 3.1875 C-2.63741207 5.63992096 -5.32793794 8.24934788 -8 11 C-8 8 -8 8 -6.25 5.95703125 C-5.5075 5.24933594 -4.765 4.54164063 -4 3.8125 C-2.88625 2.73935547 -2.88625 2.73935547 -1.75 1.64453125 C-1.1725 1.10183594 -0.595 0.55914062 0 0 Z " fill="#413D3A" transform="translate(210,208)"/>
<path d="M0 0 C3.44216672 2.6598561 3.99504674 5.90288286 5 10 C5.66 10 6.32 10 7 10 C6.34 11.32 5.68 12.64 5 14 C4.15973604 12.23244474 3.32801278 10.46082737 2.5 8.6875 C2.0359375 7.70136719 1.571875 6.71523438 1.09375 5.69921875 C0 3 0 3 0 0 Z " fill="#484441" transform="translate(246,374)"/>
<path d="M0 0 C0.99 0.33 1.98 0.66 3 1 C0.03 3.97 -2.94 6.94 -6 10 C-6.66 9.67 -7.32 9.34 -8 9 C-5.36 6.03 -2.72 3.06 0 0 Z " fill="#2E2A27" transform="translate(244,171)"/>
<path d="M0 0 C0.99 0.33 1.98 0.66 3 1 C1.02 2.98 -0.96 4.96 -3 7 C-3.99 6.67 -4.98 6.34 -6 6 C-4.02 4.02 -2.04 2.04 0 0 Z " fill="#44403D" transform="translate(235,181)"/>
</svg>
